<svg xmlns="http://www.w3.org/2000/svg" viewBox="0 0 1200 750" role="img" aria-labelledby="title desc">
  <title id="title">BioLoom monochrome cover</title>
  <desc id="desc">Abstract woven AI text strands.</desc>
  <rect width="1200" height="750" fill="#080808"/>
  <g fill="none" stroke="#f5f3ee" stroke-width="3" opacity=".55">
    <path d="M120 520c190-250 330-250 520 0s330 250 440 0"/>
    <path d="M120 410c190-250 330-250 520 0s330 250 440 0"/>
    <path d="M120 300c190-250 330-250 520 0s330 250 440 0"/>
    <path d="M120 190c190-250 330-250 520 0s330 250 440 0"/>
  </g>
  <g fill="#f5f3ee">
    <rect x="200" y="570" width="560" height="18"/>
    <rect x="200" y="610" width="420" height="18"/>
  </g>
  <rect x="820" y="540" width="160" height="90" fill="none" stroke="#d71920" stroke-width="5"/>
</svg>
