<svg shape-rendering="geometricPrecision" xmlns="http://www.w3.org/2000/svg"  class="qrcode" viewBox="0 0 29 29" preserveAspectRatio="xMidYMid" width="2048" height="2048">
<rect fill="#FFFFFF" width="100%" height="100%"/>
<path class="modules" fill="#000000" d="M10 2 m0 .3v.4q0 .3.3.3h.4q.3 0 .3-.3v-.4q0-.3-.3-.3h-.4q-.3 0-.3.3z M11 2 m0 .3v.4q0 .3.3.3h.4q.3 0 .3-.3v-.4q0-.3-.3-.3h-.4q-.3 0-.3.3z M13 2 m0 .3v.4q0 .3.3.3h.4q.3 0 .3-.3v-.4q0-.3-.3-.3h-.4q-.3 0-.3.3z M17 2 m0 .3v.4q0 .3.3.3h.4q.3 0 .3-.3v-.4q0-.3-.3-.3h-.4q-.3 0-.3.3z M18 2 m0 .3v.4q0 .3.3.3h.4q.3 0 .3-.3v-.4q0-.3-.3-.3h-.4q-.3 0-.3.3z M10 3 m0 .3v.4q0 .3.3.3h.4q.3 0 .3-.3v-.4q0-.3-.3-.3h-.4q-.3 0-.3.3z M12 3 m0 .3v.4q0 .3.3.3h.4q.3 0 .3-.3v-.4q0-.3-.3-.3h-.4q-.3 0-.3.3z M13 3 m0 .3v.4q0 .3.3.3h.4q.3 0 .3-.3v-.4q0-.3-.3-.3h-.4q-.3 0-.3.3z M14 3 m0 .3v.4q0 .3.3.3h.4q.3 0 .3-.3v-.4q0-.3-.3-.3h-.4q-.3 0-.3.3z M18 3 m0 .3v.4q0 .3.3.3h.4q.3 0 .3-.3v-.4q0-.3-.3-.3h-.4q-.3 0-.3.3z M10 4 m0 .3v.4q0 .3.3.3h.4q.3 0 .3-.3v-.4q0-.3-.3-.3h-.4q-.3 0-.3.3z M11 4 m0 .3v.4q0 .3.3.3h.4q.3 0 .3-.3v-.4q0-.3-.3-.3h-.4q-.3 0-.3.3z M12 4 m0 .3v.4q0 .3.3.3h.4q.3 0 .3-.3v-.4q0-.3-.3-.3h-.4q-.3 0-.3.3z M17 4 m0 .3v.4q0 .3.3.3h.4q.3 0 .3-.3v-.4q0-.3-.3-.3h-.4q-.3 0-.3.3z M18 4 m0 .3v.4q0 .3.3.3h.4q.3 0 .3-.3v-.4q0-.3-.3-.3h-.4q-.3 0-.3.3z M12 5 m0 .3v.4q0 .3.3.3h.4q.3 0 .3-.3v-.4q0-.3-.3-.3h-.4q-.3 0-.3.3z M13 5 m0 .3v.4q0 .3.3.3h.4q.3 0 .3-.3v-.4q0-.3-.3-.3h-.4q-.3 0-.3.3z M18 5 m0 .3v.4q0 .3.3.3h.4q.3 0 .3-.3v-.4q0-.3-.3-.3h-.4q-.3 0-.3.3z M10 6 m0 .3v.4q0 .3.3.3h.4q.3 0 .3-.3v-.4q0-.3-.3-.3h-.4q-.3 0-.3.3z M11 6 m0 .3v.4q0 .3.3.3h.4q.3 0 .3-.3v-.4q0-.3-.3-.3h-.4q-.3 0-.3.3z M13 6 m0 .3v.4q0 .3.3.3h.4q.3 0 .3-.3v-.4q0-.3-.3-.3h-.4q-.3 0-.3.3z M14 6 m0 .3v.4q0 .3.3.3h.4q.3 0 .3-.3v-.4q0-.3-.3-.3h-.4q-.3 0-.3.3z M16 6 m0 .3v.4q0 .3.3.3h.4q.3 0 .3-.3v-.4q0-.3-.3-.3h-.4q-.3 0-.3.3z M17 6 m0 .3v.4q0 .3.3.3h.4q.3 0 .3-.3v-.4q0-.3-.3-.3h-.4q-.3 0-.3.3z M18 6 m0 .3v.4q0 .3.3.3h.4q.3 0 .3-.3v-.4q0-.3-.3-.3h-.4q-.3 0-.3.3z M11 7 m0 .3v.4q0 .3.3.3h.4q.3 0 .3-.3v-.4q0-.3-.3-.3h-.4q-.3 0-.3.3z M14 7 m0 .3v.4q0 .3.3.3h.4q.3 0 .3-.3v-.4q0-.3-.3-.3h-.4q-.3 0-.3.3z M17 7 m0 .3v.4q0 .3.3.3h.4q.3 0 .3-.3v-.4q0-.3-.3-.3h-.4q-.3 0-.3.3z M18 7 m0 .3v.4q0 .3.3.3h.4q.3 0 .3-.3v-.4q0-.3-.3-.3h-.4q-.3 0-.3.3z M10 8 m0 .3v.4q0 .3.3.3h.4q.3 0 .3-.3v-.4q0-.3-.3-.3h-.4q-.3 0-.3.3z M12 8 m0 .3v.4q0 .3.3.3h.4q.3 0 .3-.3v-.4q0-.3-.3-.3h-.4q-.3 0-.3.3z M14 8 m0 .3v.4q0 .3.3.3h.4q.3 0 .3-.3v-.4q0-.3-.3-.3h-.4q-.3 0-.3.3z M16 8 m0 .3v.4q0 .3.3.3h.4q.3 0 .3-.3v-.4q0-.3-.3-.3h-.4q-.3 0-.3.3z M18 8 m0 .3v.4q0 .3.3.3h.4q.3 0 .3-.3v-.4q0-.3-.3-.3h-.4q-.3 0-.3.3z M12 9 m0 .3v.4q0 .3.3.3h.4q.3 0 .3-.3v-.4q0-.3-.3-.3h-.4q-.3 0-.3.3z M13 9 m0 .3v.4q0 .3.3.3h.4q.3 0 .3-.3v-.4q0-.3-.3-.3h-.4q-.3 0-.3.3z M15 9 m0 .3v.4q0 .3.3.3h.4q.3 0 .3-.3v-.4q0-.3-.3-.3h-.4q-.3 0-.3.3z M17 9 m0 .3v.4q0 .3.3.3h.4q.3 0 .3-.3v-.4q0-.3-.3-.3h-.4q-.3 0-.3.3z M18 9 m0 .3v.4q0 .3.3.3h.4q.3 0 .3-.3v-.4q0-.3-.3-.3h-.4q-.3 0-.3.3z M2 10 m0 .3v.4q0 .3.3.3h.4q.3 0 .3-.3v-.4q0-.3-.3-.3h-.4q-.3 0-.3.3z M5 10 m0 .3v.4q0 .3.3.3h.4q.3 0 .3-.3v-.4q0-.3-.3-.3h-.4q-.3 0-.3.3z M6 10 m0 .3v.4q0 .3.3.3h.4q.3 0 .3-.3v-.4q0-.3-.3-.3h-.4q-.3 0-.3.3z M7 10 m0 .3v.4q0 .3.3.3h.4q.3 0 .3-.3v-.4q0-.3-.3-.3h-.4q-.3 0-.3.3z M8 10 m0 .3v.4q0 .3.3.3h.4q.3 0 .3-.3v-.4q0-.3-.3-.3h-.4q-.3 0-.3.3z M9 10 m0 .3v.4q0 .3.3.3h.4q.3 0 .3-.3v-.4q0-.3-.3-.3h-.4q-.3 0-.3.3z M10 10 m0 .3v.4q0 .3.3.3h.4q.3 0 .3-.3v-.4q0-.3-.3-.3h-.4q-.3 0-.3.3z M12 10 m0 .3v.4q0 .3.3.3h.4q.3 0 .3-.3v-.4q0-.3-.3-.3h-.4q-.3 0-.3.3z M13 10 m0 .3v.4q0 .3.3.3h.4q.3 0 .3-.3v-.4q0-.3-.3-.3h-.4q-.3 0-.3.3z M15 10 m0 .3v.4q0 .3.3.3h.4q.3 0 .3-.3v-.4q0-.3-.3-.3h-.4q-.3 0-.3.3z M18 10 m0 .3v.4q0 .3.3.3h.4q.3 0 .3-.3v-.4q0-.3-.3-.3h-.4q-.3 0-.3.3z M19 10 m0 .3v.4q0 .3.3.3h.4q.3 0 .3-.3v-.4q0-.3-.3-.3h-.4q-.3 0-.3.3z M22 10 m0 .3v.4q0 .3.3.3h.4q.3 0 .3-.3v-.4q0-.3-.3-.3h-.4q-.3 0-.3.3z M24 10 m0 .3v.4q0 .3.3.3h.4q.3 0 .3-.3v-.4q0-.3-.3-.3h-.4q-.3 0-.3.3z M25 10 m0 .3v.4q0 .3.3.3h.4q.3 0 .3-.3v-.4q0-.3-.3-.3h-.4q-.3 0-.3.3z M26 10 m0 .3v.4q0 .3.3.3h.4q.3 0 .3-.3v-.4q0-.3-.3-.3h-.4q-.3 0-.3.3z M2 11 m0 .3v.4q0 .3.3.3h.4q.3 0 .3-.3v-.4q0-.3-.3-.3h-.4q-.3 0-.3.3z M3 11 m0 .3v.4q0 .3.3.3h.4q.3 0 .3-.3v-.4q0-.3-.3-.3h-.4q-.3 0-.3.3z M5 11 m0 .3v.4q0 .3.3.3h.4q.3 0 .3-.3v-.4q0-.3-.3-.3h-.4q-.3 0-.3.3z M7 11 m0 .3v.4q0 .3.3.3h.4q.3 0 .3-.3v-.4q0-.3-.3-.3h-.4q-.3 0-.3.3z M9 11 m0 .3v.4q0 .3.3.3h.4q.3 0 .3-.3v-.4q0-.3-.3-.3h-.4q-.3 0-.3.3z M11 11 m0 .3v.4q0 .3.3.3h.4q.3 0 .3-.3v-.4q0-.3-.3-.3h-.4q-.3 0-.3.3z M15 11 m0 .3v.4q0 .3.3.3h.4q.3 0 .3-.3v-.4q0-.3-.3-.3h-.4q-.3 0-.3.3z M18 11 m0 .3v.4q0 .3.3.3h.4q.3 0 .3-.3v-.4q0-.3-.3-.3h-.4q-.3 0-.3.3z M20 11 m0 .3v.4q0 .3.3.3h.4q.3 0 .3-.3v-.4q0-.3-.3-.3h-.4q-.3 0-.3.3z M21 11 m0 .3v.4q0 .3.3.3h.4q.3 0 .3-.3v-.4q0-.3-.3-.3h-.4q-.3 0-.3.3z M22 11 m0 .3v.4q0 .3.3.3h.4q.3 0 .3-.3v-.4q0-.3-.3-.3h-.4q-.3 0-.3.3z M23 11 m0 .3v.4q0 .3.3.3h.4q.3 0 .3-.3v-.4q0-.3-.3-.3h-.4q-.3 0-.3.3z M24 11 m0 .3v.4q0 .3.3.3h.4q.3 0 .3-.3v-.4q0-.3-.3-.3h-.4q-.3 0-.3.3z M25 11 m0 .3v.4q0 .3.3.3h.4q.3 0 .3-.3v-.4q0-.3-.3-.3h-.4q-.3 0-.3.3z M3 12 m0 .3v.4q0 .3.3.3h.4q.3 0 .3-.3v-.4q0-.3-.3-.3h-.4q-.3 0-.3.3z M4 12 m0 .3v.4q0 .3.3.3h.4q.3 0 .3-.3v-.4q0-.3-.3-.3h-.4q-.3 0-.3.3z M7 12 m0 .3v.4q0 .3.3.3h.4q.3 0 .3-.3v-.4q0-.3-.3-.3h-.4q-.3 0-.3.3z M8 12 m0 .3v.4q0 .3.3.3h.4q.3 0 .3-.3v-.4q0-.3-.3-.3h-.4q-.3 0-.3.3z M13 12 m0 .3v.4q0 .3.3.3h.4q.3 0 .3-.3v-.4q0-.3-.3-.3h-.4q-.3 0-.3.3z M15 12 m0 .3v.4q0 .3.3.3h.4q.3 0 .3-.3v-.4q0-.3-.3-.3h-.4q-.3 0-.3.3z M17 12 m0 .3v.4q0 .3.3.3h.4q.3 0 .3-.3v-.4q0-.3-.3-.3h-.4q-.3 0-.3.3z M20 12 m0 .3v.4q0 .3.3.3h.4q.3 0 .3-.3v-.4q0-.3-.3-.3h-.4q-.3 0-.3.3z M21 12 m0 .3v.4q0 .3.3.3h.4q.3 0 .3-.3v-.4q0-.3-.3-.3h-.4q-.3 0-.3.3z M23 12 m0 .3v.4q0 .3.3.3h.4q.3 0 .3-.3v-.4q0-.3-.3-.3h-.4q-.3 0-.3.3z M26 12 m0 .3v.4q0 .3.3.3h.4q.3 0 .3-.3v-.4q0-.3-.3-.3h-.4q-.3 0-.3.3z M2 13 m0 .3v.4q0 .3.3.3h.4q.3 0 .3-.3v-.4q0-.3-.3-.3h-.4q-.3 0-.3.3z M4 13 m0 .3v.4q0 .3.3.3h.4q.3 0 .3-.3v-.4q0-.3-.3-.3h-.4q-.3 0-.3.3z M7 13 m0 .3v.4q0 .3.3.3h.4q.3 0 .3-.3v-.4q0-.3-.3-.3h-.4q-.3 0-.3.3z M10 13 m0 .3v.4q0 .3.3.3h.4q.3 0 .3-.3v-.4q0-.3-.3-.3h-.4q-.3 0-.3.3z M12 13 m0 .3v.4q0 .3.3.3h.4q.3 0 .3-.3v-.4q0-.3-.3-.3h-.4q-.3 0-.3.3z M13 13 m0 .3v.4q0 .3.3.3h.4q.3 0 .3-.3v-.4q0-.3-.3-.3h-.4q-.3 0-.3.3z M14 13 m0 .3v.4q0 .3.3.3h.4q.3 0 .3-.3v-.4q0-.3-.3-.3h-.4q-.3 0-.3.3z M15 13 m0 .3v.4q0 .3.3.3h.4q.3 0 .3-.3v-.4q0-.3-.3-.3h-.4q-.3 0-.3.3z M18 13 m0 .3v.4q0 .3.3.3h.4q.3 0 .3-.3v-.4q0-.3-.3-.3h-.4q-.3 0-.3.3z M20 13 m0 .3v.4q0 .3.3.3h.4q.3 0 .3-.3v-.4q0-.3-.3-.3h-.4q-.3 0-.3.3z M21 13 m0 .3v.4q0 .3.3.3h.4q.3 0 .3-.3v-.4q0-.3-.3-.3h-.4q-.3 0-.3.3z M22 13 m0 .3v.4q0 .3.3.3h.4q.3 0 .3-.3v-.4q0-.3-.3-.3h-.4q-.3 0-.3.3z M23 13 m0 .3v.4q0 .3.3.3h.4q.3 0 .3-.3v-.4q0-.3-.3-.3h-.4q-.3 0-.3.3z M24 13 m0 .3v.4q0 .3.3.3h.4q.3 0 .3-.3v-.4q0-.3-.3-.3h-.4q-.3 0-.3.3z M25 13 m0 .3v.4q0 .3.3.3h.4q.3 0 .3-.3v-.4q0-.3-.3-.3h-.4q-.3 0-.3.3z M7 14 m0 .3v.4q0 .3.3.3h.4q.3 0 .3-.3v-.4q0-.3-.3-.3h-.4q-.3 0-.3.3z M8 14 m0 .3v.4q0 .3.3.3h.4q.3 0 .3-.3v-.4q0-.3-.3-.3h-.4q-.3 0-.3.3z M9 14 m0 .3v.4q0 .3.3.3h.4q.3 0 .3-.3v-.4q0-.3-.3-.3h-.4q-.3 0-.3.3z M10 14 m0 .3v.4q0 .3.3.3h.4q.3 0 .3-.3v-.4q0-.3-.3-.3h-.4q-.3 0-.3.3z M13 14 m0 .3v.4q0 .3.3.3h.4q.3 0 .3-.3v-.4q0-.3-.3-.3h-.4q-.3 0-.3.3z
M14 14 m0 .3v.4q0 .3.3.3h.4q.3 0 .3-.3v-.4q0-.3-.3-.3h-.4q-.3 0-.3.3z M15 14 m0 .3v.4q0 .3.3.3h.4q.3 0 .3-.3v-.4q0-.3-.3-.3h-.4q-.3 0-.3.3z M17 14 m0 .3v.4q0 .3.3.3h.4q.3 0 .3-.3v-.4q0-.3-.3-.3h-.4q-.3 0-.3.3z M20 14 m0 .3v.4q0 .3.3.3h.4q.3 0 .3-.3v-.4q0-.3-.3-.3h-.4q-.3 0-.3.3z M21 14 m0 .3v.4q0 .3.3.3h.4q.3 0 .3-.3v-.4q0-.3-.3-.3h-.4q-.3 0-.3.3z M23 14 m0 .3v.4q0 .3.3.3h.4q.3 0 .3-.3v-.4q0-.3-.3-.3h-.4q-.3 0-.3.3z M25 14 m0 .3v.4q0 .3.3.3h.4q.3 0 .3-.3v-.4q0-.3-.3-.3h-.4q-.3 0-.3.3z M26 14 m0 .3v.4q0 .3.3.3h.4q.3 0 .3-.3v-.4q0-.3-.3-.3h-.4q-.3 0-.3.3z M2 15 m0 .3v.4q0 .3.3.3h.4q.3 0 .3-.3v-.4q0-.3-.3-.3h-.4q-.3 0-.3.3z M3 15 m0 .3v.4q0 .3.3.3h.4q.3 0 .3-.3v-.4q0-.3-.3-.3h-.4q-.3 0-.3.3z M6 15 m0 .3v.4q0 .3.3.3h.4q.3 0 .3-.3v-.4q0-.3-.3-.3h-.4q-.3 0-.3.3z M9 15 m0 .3v.4q0 .3.3.3h.4q.3 0 .3-.3v-.4q0-.3-.3-.3h-.4q-.3 0-.3.3z M10 15 m0 .3v.4q0 .3.3.3h.4q.3 0 .3-.3v-.4q0-.3-.3-.3h-.4q-.3 0-.3.3z M11 15 m0 .3v.4q0 .3.3.3h.4q.3 0 .3-.3v-.4q0-.3-.3-.3h-.4q-.3 0-.3.3z M12 15 m0 .3v.4q0 .3.3.3h.4q.3 0 .3-.3v-.4q0-.3-.3-.3h-.4q-.3 0-.3.3z M15 15 m0 .3v.4q0 .3.3.3h.4q.3 0 .3-.3v-.4q0-.3-.3-.3h-.4q-.3 0-.3.3z M16 15 m0 .3v.4q0 .3.3.3h.4q.3 0 .3-.3v-.4q0-.3-.3-.3h-.4q-.3 0-.3.3z M18 15 m0 .3v.4q0 .3.3.3h.4q.3 0 .3-.3v-.4q0-.3-.3-.3h-.4q-.3 0-.3.3z M19 15 m0 .3v.4q0 .3.3.3h.4q.3 0 .3-.3v-.4q0-.3-.3-.3h-.4q-.3 0-.3.3z M21 15 m0 .3v.4q0 .3.3.3h.4q.3 0 .3-.3v-.4q0-.3-.3-.3h-.4q-.3 0-.3.3z M22 15 m0 .3v.4q0 .3.3.3h.4q.3 0 .3-.3v-.4q0-.3-.3-.3h-.4q-.3 0-.3.3z M23 15 m0 .3v.4q0 .3.3.3h.4q.3 0 .3-.3v-.4q0-.3-.3-.3h-.4q-.3 0-.3.3z M24 15 m0 .3v.4q0 .3.3.3h.4q.3 0 .3-.3v-.4q0-.3-.3-.3h-.4q-.3 0-.3.3z M25 15 m0 .3v.4q0 .3.3.3h.4q.3 0 .3-.3v-.4q0-.3-.3-.3h-.4q-.3 0-.3.3z M2 16 m0 .3v.4q0 .3.3.3h.4q.3 0 .3-.3v-.4q0-.3-.3-.3h-.4q-.3 0-.3.3z M3 16 m0 .3v.4q0 .3.3.3h.4q.3 0 .3-.3v-.4q0-.3-.3-.3h-.4q-.3 0-.3.3z M5 16 m0 .3v.4q0 .3.3.3h.4q.3 0 .3-.3v-.4q0-.3-.3-.3h-.4q-.3 0-.3.3z M7 16 m0 .3v.4q0 .3.3.3h.4q.3 0 .3-.3v-.4q0-.3-.3-.3h-.4q-.3 0-.3.3z M8 16 m0 .3v.4q0 .3.3.3h.4q.3 0 .3-.3v-.4q0-.3-.3-.3h-.4q-.3 0-.3.3z M10 16 m0 .3v.4q0 .3.3.3h.4q.3 0 .3-.3v-.4q0-.3-.3-.3h-.4q-.3 0-.3.3z M11 16 m0 .3v.4q0 .3.3.3h.4q.3 0 .3-.3v-.4q0-.3-.3-.3h-.4q-.3 0-.3.3z M13 16 m0 .3v.4q0 .3.3.3h.4q.3 0 .3-.3v-.4q0-.3-.3-.3h-.4q-.3 0-.3.3z M14 16 m0 .3v.4q0 .3.3.3h.4q.3 0 .3-.3v-.4q0-.3-.3-.3h-.4q-.3 0-.3.3z M15 16 m0 .3v.4q0 .3.3.3h.4q.3 0 .3-.3v-.4q0-.3-.3-.3h-.4q-.3 0-.3.3z M17 16 m0 .3v.4q0 .3.3.3h.4q.3 0 .3-.3v-.4q0-.3-.3-.3h-.4q-.3 0-.3.3z M18 16 m0 .3v.4q0 .3.3.3h.4q.3 0 .3-.3v-.4q0-.3-.3-.3h-.4q-.3 0-.3.3z M19 16 m0 .3v.4q0 .3.3.3h.4q.3 0 .3-.3v-.4q0-.3-.3-.3h-.4q-.3 0-.3.3z M20 16 m0 .3v.4q0 .3.3.3h.4q.3 0 .3-.3v-.4q0-.3-.3-.3h-.4q-.3 0-.3.3z M22 16 m0 .3v.4q0 .3.3.3h.4q.3 0 .3-.3v-.4q0-.3-.3-.3h-.4q-.3 0-.3.3z M25 16 m0 .3v.4q0 .3.3.3h.4q.3 0 .3-.3v-.4q0-.3-.3-.3h-.4q-.3 0-.3.3z M26 16 m0 .3v.4q0 .3.3.3h.4q.3 0 .3-.3v-.4q0-.3-.3-.3h-.4q-.3 0-.3.3z M2 17 m0 .3v.4q0 .3.3.3h.4q.3 0 .3-.3v-.4q0-.3-.3-.3h-.4q-.3 0-.3.3z M4 17 m0 .3v.4q0 .3.3.3h.4q.3 0 .3-.3v-.4q0-.3-.3-.3h-.4q-.3 0-.3.3z M5 17 m0 .3v.4q0 .3.3.3h.4q.3 0 .3-.3v-.4q0-.3-.3-.3h-.4q-.3 0-.3.3z M6 17 m0 .3v.4q0 .3.3.3h.4q.3 0 .3-.3v-.4q0-.3-.3-.3h-.4q-.3 0-.3.3z M7 17 m0 .3v.4q0 .3.3.3h.4q.3 0 .3-.3v-.4q0-.3-.3-.3h-.4q-.3 0-.3.3z M9 17 m0 .3v.4q0 .3.3.3h.4q.3 0 .3-.3v-.4q0-.3-.3-.3h-.4q-.3 0-.3.3z M11 17 m0 .3v.4q0 .3.3.3h.4q.3 0 .3-.3v-.4q0-.3-.3-.3h-.4q-.3 0-.3.3z M13 17 m0 .3v.4q0 .3.3.3h.4q.3 0 .3-.3v-.4q0-.3-.3-.3h-.4q-.3 0-.3.3z M17 17 m0 .3v.4q0 .3.3.3h.4q.3 0 .3-.3v-.4q0-.3-.3-.3h-.4q-.3 0-.3.3z M21 17 m0 .3v.4q0 .3.3.3h.4q.3 0 .3-.3v-.4q0-.3-.3-.3h-.4q-.3 0-.3.3z M22 17 m0 .3v.4q0 .3.3.3h.4q.3 0 .3-.3v-.4q0-.3-.3-.3h-.4q-.3 0-.3.3z M24 17 m0 .3v.4q0 .3.3.3h.4q.3 0 .3-.3v-.4q0-.3-.3-.3h-.4q-.3 0-.3.3z M25 17 m0 .3v.4q0 .3.3.3h.4q.3 0 .3-.3v-.4q0-.3-.3-.3h-.4q-.3 0-.3.3z M26 17 m0 .3v.4q0 .3.3.3h.4q.3 0 .3-.3v-.4q0-.3-.3-.3h-.4q-.3 0-.3.3z M2 18 m0 .3v.4q0 .3.3.3h.4q.3 0 .3-.3v-.4q0-.3-.3-.3h-.4q-.3 0-.3.3z M5 18 m0 .3v.4q0 .3.3.3h.4q.3 0 .3-.3v-.4q0-.3-.3-.3h-.4q-.3 0-.3.3z M6 18 m0 .3v.4q0 .3.3.3h.4q.3 0 .3-.3v-.4q0-.3-.3-.3h-.4q-.3 0-.3.3z M8 18 m0 .3v.4q0 .3.3.3h.4q.3 0 .3-.3v-.4q0-.3-.3-.3h-.4q-.3 0-.3.3z M10 18 m0 .3v.4q0 .3.3.3h.4q.3 0 .3-.3v-.4q0-.3-.3-.3h-.4q-.3 0-.3.3z M11 18 m0 .3v.4q0 .3.3.3h.4q.3 0 .3-.3v-.4q0-.3-.3-.3h-.4q-.3 0-.3.3z M12 18 m0 .3v.4q0 .3.3.3h.4q.3 0 .3-.3v-.4q0-.3-.3-.3h-.4q-.3 0-.3.3z M16 18 m0 .3v.4q0 .3.3.3h.4q.3 0 .3-.3v-.4q0-.3-.3-.3h-.4q-.3 0-.3.3z M17 18 m0 .3v.4q0 .3.3.3h.4q.3 0 .3-.3v-.4q0-.3-.3-.3h-.4q-.3 0-.3.3z M18 18 m0 .3v.4q0 .3.3.3h.4q.3 0 .3-.3v-.4q0-.3-.3-.3h-.4q-.3 0-.3.3z M19 18 m0 .3v.4q0 .3.3.3h.4q.3 0 .3-.3v-.4q0-.3-.3-.3h-.4q-.3 0-.3.3z M20 18 m0 .3v.4q0 .3.3.3h.4q.3 0 .3-.3v-.4q0-.3-.3-.3h-.4q-.3 0-.3.3z M21 18 m0 .3v.4q0 .3.3.3h.4q.3 0 .3-.3v-.4q0-.3-.3-.3h-.4q-.3 0-.3.3z M22 18 m0 .3v.4q0 .3.3.3h.4q.3 0 .3-.3v-.4q0-.3-.3-.3h-.4q-.3 0-.3.3z M23 18 m0 .3v.4q0 .3.3.3h.4q.3 0 .3-.3v-.4q0-.3-.3-.3h-.4q-.3 0-.3.3z M24 18 m0 .3v.4q0 .3.3.3h.4q.3 0 .3-.3v-.4q0-.3-.3-.3h-.4q-.3 0-.3.3z M25 18 m0 .3v.4q0 .3.3.3h.4q.3 0 .3-.3v-.4q0-.3-.3-.3h-.4q-.3 0-.3.3z M26 18 m0 .3v.4q0 .3.3.3h.4q.3 0 .3-.3v-.4q0-.3-.3-.3h-.4q-.3 0-.3.3z M10 19 m0 .3v.4q0 .3.3.3h.4q.3 0 .3-.3v-.4q0-.3-.3-.3h-.4q-.3 0-.3.3z M11 19 m0 .3v.4q0 .3.3.3h.4q.3 0 .3-.3v-.4q0-.3-.3-.3h-.4q-.3 0-.3.3z M12 19 m0 .3v.4q0 .3.3.3h.4q.3 0 .3-.3v-.4q0-.3-.3-.3h-.4q-.3 0-.3.3z M13 19 m0 .3v.4q0 .3.3.3h.4q.3 0 .3-.3v-.4q0-.3-.3-.3h-.4q-.3 0-.3.3z M14 19 m0 .3v.4q0 .3.3.3h.4q.3 0 .3-.3v-.4q0-.3-.3-.3h-.4q-.3 0-.3.3z M15 19 m0 .3v.4q0 .3.3.3h.4q.3 0 .3-.3v-.4q0-.3-.3-.3h-.4q-.3 0-.3.3z M16 19 m0 .3v.4q0 .3.3.3h.4q.3 0 .3-.3v-.4q0-.3-.3-.3h-.4q-.3 0-.3.3z M17 19 m0 .3v.4q0 .3.3.3h.4q.3 0 .3-.3v-.4q0-.3-.3-.3h-.4q-.3 0-.3.3z M18 19 m0 .3v.4q0 .3.3.3h.4q.3 0 .3-.3v-.4q0-.3-.3-.3h-.4q-.3 0-.3.3z M22 19 m0 .3v.4q0 .3.3.3h.4q.3 0 .3-.3v-.4q0-.3-.3-.3h-.4q-.3 0-.3.3z M23 19 m0 .3v.4q0 .3.3.3h.4q.3 0 .3-.3v-.4q0-.3-.3-.3h-.4q-.3 0-.3.3z M10 20 m0 .3v.4q0 .3.3.3h.4q.3 0 .3-.3v-.4q0-.3-.3-.3h-.4q-.3 0-.3.3z M12 20 m0 .3v.4q0 .3.3.3h.4q.3 0 .3-.3v-.4q0-.3-.3-.3h-.4q-.3 0-.3.3z M13 20 m0 .3v.4q0 .3.3.3h.4q.3 0 .3-.3v-.4q0-.3-.3-.3h-.4q-.3 0-.3.3z M18 20 m0 .3v.4q0 .3.3.3h.4q.3 0 .3-.3v-.4q0-.3-.3-.3h-.4q-.3 0-.3.3z M20 20 m0 .3v.4q0 .3.3.3h.4q.3 0 .3-.3v-.4q0-.3-.3-.3h-.4q-.3 0-.3.3z M22 20 m0 .3v.4q0 .3.3.3h.4q.3 0 .3-.3v-.4q0-.3-.3-.3h-.4q-.3 0-.3.3z M23 20 m0 .3v.4q0 .3.3.3h.4q.3 0 .3-.3v-.4q0-.3-.3-.3h-.4q-.3 0-.3.3z M26 20 m0 .3v.4q0 .3.3.3h.4q.3 0 .3-.3v-.4q0-.3-.3-.3h-.4q-.3 0-.3.3z M10 21 m0 .3v.4q0 .3.3.3h.4q.3 0 .3-.3v-.4q0-.3-.3-.3h-.4q-.3 0-.3.3z M12 21 m0 .3v.4q0 .3.3.3h.4q.3 0 .3-.3v-.4q0-.3-.3-.3h-.4q-.3 0-.3.3z M14 21 m0 .3v.4q0 .3.3.3h.4q.3 0 .3-.3v-.4q0-.3-.3-.3h-.4q-.3 0-.3.3z M16 21 m0 .3v.4q0 .3.3.3h.4q.3 0 .3-.3v-.4q0-.3-.3-.3h-.4q-.3 0-.3.3z M17 21 m0 .3v.4q0 .3.3.3h.4q.3 0 .3-.3v-.4q0-.3-.3-.3h-.4q-.3 0-.3.3z M18 21 m0 .3v.4q0 .3.3.3h.4q.3 0 .3-.3v-.4q0-.3-.3-.3h-.4q-.3 0-.3.3z M22 21 m0 .3v.4q0 .3.3.3h.4q.3 0 .3-.3v-.4q0-.3-.3-.3h-.4q-.3 0-.3.3z M23 21 m0 .3v.4q0 .3.3.3h.4q.3 0 .3-.3v-.4q0-.3-.3-.3h-.4q-.3 0-.3.3z
M25 21 m0 .3v.4q0 .3.3.3h.4q.3 0 .3-.3v-.4q0-.3-.3-.3h-.4q-.3 0-.3.3z M10 22 m0 .3v.4q0 .3.3.3h.4q.3 0 .3-.3v-.4q0-.3-.3-.3h-.4q-.3 0-.3.3z M11 22 m0 .3v.4q0 .3.3.3h.4q.3 0 .3-.3v-.4q0-.3-.3-.3h-.4q-.3 0-.3.3z M14 22 m0 .3v.4q0 .3.3.3h.4q.3 0 .3-.3v-.4q0-.3-.3-.3h-.4q-.3 0-.3.3z M15 22 m0 .3v.4q0 .3.3.3h.4q.3 0 .3-.3v-.4q0-.3-.3-.3h-.4q-.3 0-.3.3z M16 22 m0 .3v.4q0 .3.3.3h.4q.3 0 .3-.3v-.4q0-.3-.3-.3h-.4q-.3 0-.3.3z M17 22 m0 .3v.4q0 .3.3.3h.4q.3 0 .3-.3v-.4q0-.3-.3-.3h-.4q-.3 0-.3.3z M18 22 m0 .3v.4q0 .3.3.3h.4q.3 0 .3-.3v-.4q0-.3-.3-.3h-.4q-.3 0-.3.3z M19 22 m0 .3v.4q0 .3.3.3h.4q.3 0 .3-.3v-.4q0-.3-.3-.3h-.4q-.3 0-.3.3z M20 22 m0 .3v.4q0 .3.3.3h.4q.3 0 .3-.3v-.4q0-.3-.3-.3h-.4q-.3 0-.3.3z M21 22 m0 .3v.4q0 .3.3.3h.4q.3 0 .3-.3v-.4q0-.3-.3-.3h-.4q-.3 0-.3.3z M22 22 m0 .3v.4q0 .3.3.3h.4q.3 0 .3-.3v-.4q0-.3-.3-.3h-.4q-.3 0-.3.3z M23 22 m0 .3v.4q0 .3.3.3h.4q.3 0 .3-.3v-.4q0-.3-.3-.3h-.4q-.3 0-.3.3z M25 22 m0 .3v.4q0 .3.3.3h.4q.3 0 .3-.3v-.4q0-.3-.3-.3h-.4q-.3 0-.3.3z M10 23 m0 .3v.4q0 .3.3.3h.4q.3 0 .3-.3v-.4q0-.3-.3-.3h-.4q-.3 0-.3.3z M12 23 m0 .3v.4q0 .3.3.3h.4q.3 0 .3-.3v-.4q0-.3-.3-.3h-.4q-.3 0-.3.3z M16 23 m0 .3v.4q0 .3.3.3h.4q.3 0 .3-.3v-.4q0-.3-.3-.3h-.4q-.3 0-.3.3z M18 23 m0 .3v.4q0 .3.3.3h.4q.3 0 .3-.3v-.4q0-.3-.3-.3h-.4q-.3 0-.3.3z M20 23 m0 .3v.4q0 .3.3.3h.4q.3 0 .3-.3v-.4q0-.3-.3-.3h-.4q-.3 0-.3.3z M23 23 m0 .3v.4q0 .3.3.3h.4q.3 0 .3-.3v-.4q0-.3-.3-.3h-.4q-.3 0-.3.3z M26 23 m0 .3v.4q0 .3.3.3h.4q.3 0 .3-.3v-.4q0-.3-.3-.3h-.4q-.3 0-.3.3z M11 24 m0 .3v.4q0 .3.3.3h.4q.3 0 .3-.3v-.4q0-.3-.3-.3h-.4q-.3 0-.3.3z M14 24 m0 .3v.4q0 .3.3.3h.4q.3 0 .3-.3v-.4q0-.3-.3-.3h-.4q-.3 0-.3.3z M16 24 m0 .3v.4q0 .3.3.3h.4q.3 0 .3-.3v-.4q0-.3-.3-.3h-.4q-.3 0-.3.3z M17 24 m0 .3v.4q0 .3.3.3h.4q.3 0 .3-.3v-.4q0-.3-.3-.3h-.4q-.3 0-.3.3z M21 24 m0 .3v.4q0 .3.3.3h.4q.3 0 .3-.3v-.4q0-.3-.3-.3h-.4q-.3 0-.3.3z M22 24 m0 .3v.4q0 .3.3.3h.4q.3 0 .3-.3v-.4q0-.3-.3-.3h-.4q-.3 0-.3.3z M24 24 m0 .3v.4q0 .3.3.3h.4q.3 0 .3-.3v-.4q0-.3-.3-.3h-.4q-.3 0-.3.3z M25 24 m0 .3v.4q0 .3.3.3h.4q.3 0 .3-.3v-.4q0-.3-.3-.3h-.4q-.3 0-.3.3z M26 24 m0 .3v.4q0 .3.3.3h.4q.3 0 .3-.3v-.4q0-.3-.3-.3h-.4q-.3 0-.3.3z M11 25 m0 .3v.4q0 .3.3.3h.4q.3 0 .3-.3v-.4q0-.3-.3-.3h-.4q-.3 0-.3.3z M16 25 m0 .3v.4q0 .3.3.3h.4q.3 0 .3-.3v-.4q0-.3-.3-.3h-.4q-.3 0-.3.3z M17 25 m0 .3v.4q0 .3.3.3h.4q.3 0 .3-.3v-.4q0-.3-.3-.3h-.4q-.3 0-.3.3z M18 25 m0 .3v.4q0 .3.3.3h.4q.3 0 .3-.3v-.4q0-.3-.3-.3h-.4q-.3 0-.3.3z M20 25 m0 .3v.4q0 .3.3.3h.4q.3 0 .3-.3v-.4q0-.3-.3-.3h-.4q-.3 0-.3.3z M22 25 m0 .3v.4q0 .3.3.3h.4q.3 0 .3-.3v-.4q0-.3-.3-.3h-.4q-.3 0-.3.3z M23 25 m0 .3v.4q0 .3.3.3h.4q.3 0 .3-.3v-.4q0-.3-.3-.3h-.4q-.3 0-.3.3z M24 25 m0 .3v.4q0 .3.3.3h.4q.3 0 .3-.3v-.4q0-.3-.3-.3h-.4q-.3 0-.3.3z M25 25 m0 .3v.4q0 .3.3.3h.4q.3 0 .3-.3v-.4q0-.3-.3-.3h-.4q-.3 0-.3.3z M26 25 m0 .3v.4q0 .3.3.3h.4q.3 0 .3-.3v-.4q0-.3-.3-.3h-.4q-.3 0-.3.3z M10 26 m0 .3v.4q0 .3.3.3h.4q.3 0 .3-.3v-.4q0-.3-.3-.3h-.4q-.3 0-.3.3z M11 26 m0 .3v.4q0 .3.3.3h.4q.3 0 .3-.3v-.4q0-.3-.3-.3h-.4q-.3 0-.3.3z M15 26 m0 .3v.4q0 .3.3.3h.4q.3 0 .3-.3v-.4q0-.3-.3-.3h-.4q-.3 0-.3.3z M16 26 m0 .3v.4q0 .3.3.3h.4q.3 0 .3-.3v-.4q0-.3-.3-.3h-.4q-.3 0-.3.3z M18 26 m0 .3v.4q0 .3.3.3h.4q.3 0 .3-.3v-.4q0-.3-.3-.3h-.4q-.3 0-.3.3z M20 26 m0 .3v.4q0 .3.3.3h.4q.3 0 .3-.3v-.4q0-.3-.3-.3h-.4q-.3 0-.3.3z M21 26 m0 .3v.4q0 .3.3.3h.4q.3 0 .3-.3v-.4q0-.3-.3-.3h-.4q-.3 0-.3.3z M22 26 m0 .3v.4q0 .3.3.3h.4q.3 0 .3-.3v-.4q0-.3-.3-.3h-.4q-.3 0-.3.3z M26 26 m0 .3v.4q0 .3.3.3h.4q.3 0 .3-.3v-.4q0-.3-.3-.3h-.4q-.3 0-.3.3z"/>
<path class="outer" fill="#000000" d="M2 2 m0 0h4.8c1.2 0 2.2 1 2.2 2.2v4.8h-4.8c-1.2 0-2.2-1-2.2-2.2v-4.8zm6 6v-3.6c0-.75-.65-1.4-1.4-1.4h-3.6v3.6c0 .75.65 1.4 1.4 1.4h3.6z"/>
<path class="inner" fill="#000000" d="M2 2 m5.062 5.063v-1.533c0-.867-.663-1.53-1.531-1.53h-1.531v1.532c0 .867.663 1.53 1.531 1.53h1.531z"/>
<path class="outer" fill="#000000" d="M2 20 m7 0h-4.8c-1.2 0-2.2 1-2.2 2.2v4.8h4.8c1.2 0 2.2-1 2.2-2.2v-4.8zm-6 6v-3.6c0-.75.65-1.4 1.4-1.4h3.6v3.6c0 .75-.65 1.4-1.4 1.4h-3.6z"/>
<path class="inner" fill="#000000" d="M2 20 m2 5.063v-1.533c0-.867.663-1.53 1.531-1.53h1.531v1.532c0 .867-.663 1.53-1.531 1.53h-1.531z"/>
<path class="outer" fill="#000000" d="M20 2 m7 0h-4.8c-1.2 0-2.2 1-2.2 2.2v4.8h4.8c1.2 0 2.2-1 2.2-2.2v-4.8zm-6 6v-3.6c0-.75.65-1.4 1.4-1.4h3.6v3.6c0 .75-.65 1.4-1.4 1.4h-3.6z"/>
<path class="inner" fill="#000000" d="M20 2 m2 5.063v-1.533c0-.867.663-1.53 1.531-1.53h1.531v1.532c0 .867-.663 1.53-1.531 1.53h-1.531z"/>
</svg>
